<svg xmlns="http://www.w3.org/2000/svg" width="1200" height="630" viewBox="0 0 1200 630">
  <defs>
    <linearGradient id="bg" x1="0" y1="0" x2="1" y2="1">
      <stop offset="0%" stop-color="#f5f7fb" />
      <stop offset="55%" stop-color="#edf2f8" />
      <stop offset="100%" stop-color="#e3ecf6" />
    </linearGradient>
    <linearGradient id="accent" x1="0" y1="0" x2="1" y2="0">
      <stop offset="0%" stop-color="#0ea5e9" />
      <stop offset="100%" stop-color="#14b8a6" />
    </linearGradient>
  </defs>
  <rect width="1200" height="630" fill="#edf2f8" />
  <rect x="40" y="40" width="1120" height="550" rx="36" fill="url(#bg)" />

  <rect x="80" y="90" width="1040" height="90" rx="20" fill="#ffffff" opacity="0.95" />
  <rect x="110" y="115" width="280" height="16" rx="8" fill="#0b1020" />
  <rect x="110" y="140" width="420" height="12" rx="6" fill="#526070" opacity="0.7" />

  <rect x="80" y="210" width="320" height="150" rx="22" fill="#ffffff" />
  <rect x="420" y="210" width="320" height="150" rx="22" fill="#ffffff" />
  <rect x="760" y="210" width="360" height="150" rx="22" fill="#ffffff" />

  <rect x="110" y="245" width="140" height="12" rx="6" fill="#526070" opacity="0.6" />
  <rect x="110" y="270" width="90" height="32" rx="8" fill="#0b1020" />

  <rect x="450" y="245" width="160" height="12" rx="6" fill="#526070" opacity="0.6" />
  <rect x="450" y="270" width="120" height="32" rx="8" fill="url(#accent)" />

  <rect x="800" y="245" width="180" height="12" rx="6" fill="#526070" opacity="0.6" />
  <rect x="800" y="270" width="220" height="32" rx="8" fill="#0b1020" />

  <rect x="80" y="390" width="1040" height="170" rx="24" fill="#ffffff" />
  <rect x="110" y="420" width="980" height="14" rx="7" fill="#526070" opacity="0.35" />
  <rect x="110" y="450" width="720" height="12" rx="6" fill="#526070" opacity="0.35" />
  <rect x="110" y="480" width="520" height="12" rx="6" fill="#526070" opacity="0.35" />
</svg>
